# xmcd
#
# Track frame offsets:
#	150
#	15840
#	30610
#	45333
#	60898
#	75387
#	89527
#	104014
#	120105
#	137376
#	157875
#	172295
#	187923
#	201288
#	215597
#
# Disc length: 3064 seconds
#
# Revision: 1
# Processed by: cddbd v1.5.2PL0 Copyright (c) Steve Scherf et al.
# Submitted via: audiograbber 1.83.01
#
DISCID=b10bf60f
DTITLE=Sunrise - Freiheit
DYEAR=2016
DGENRE=Schlager
TTITLE0=Wenn Freiheit dir so wichtig ist
TTITLE1=Klau mir meine Unschuld
TTITLE2=Halte mich fest
TTITLE3=Eine Lüge für die Liebe
TTITLE4=Der Wahnsinn mit dir
TTITLE5=Ein Bett aus Rosen
TTITLE6=Der Wind der Freiheit
TTITLE7=Der Typ neben ihr
TTITLE8=Du, ich schlaf so gern in deinen Armen ein
TTITLE9=Zum Mond und zurück
TTITLE10=Die Sterne schweigen uns an
TTITLE11=Im Meer der 1000 Träume
TTITLE12=Liebe muss ein Traumschoff sein
TTITLE13=Ein schönes Mädchen wie du (Remix)
TTITLE14=Dank dem Herrgott (dass wir Südtiroler sind)
EXTD=
EXTT0=
EXTT1=
EXTT2=
EXTT3=
EXTT4=
EXTT5=
EXTT6=
EXTT7=
EXTT8=
EXTT9=
EXTT10=
EXTT11=
EXTT12=
EXTT13=
EXTT14=
PLAYORDER=
